<svg width="59" height="57" viewBox="0 0 59 57" fill="none" xmlns="http://www.w3.org/2000/svg">
<path d="M5.4929 47.7827C5.45881 47.4389 5.3125 47.1719 5.05398 46.9815C4.79545 46.7912 4.4446 46.696 4.00142 46.696C3.70028 46.696 3.44602 46.7386 3.23864 46.8239C3.03125 46.9062 2.87216 47.0213 2.76136 47.169C2.65341 47.3168 2.59943 47.4844 2.59943 47.6719C2.59375 47.8281 2.62642 47.9645 2.69744 48.081C2.77131 48.1974 2.87216 48.2983 3 48.3835C3.12784 48.4659 3.27557 48.5384 3.44318 48.6009C3.6108 48.6605 3.78977 48.7116 3.98011 48.7543L4.7642 48.9418C5.14489 49.027 5.49432 49.1406 5.8125 49.2827C6.13068 49.4247 6.40625 49.5994 6.6392 49.8068C6.87216 50.0142 7.05256 50.2585 7.1804 50.5398C7.31108 50.821 7.37784 51.1435 7.38068 51.5071C7.37784 52.0412 7.24148 52.5043 6.97159 52.8963C6.70455 53.2855 6.31818 53.5881 5.8125 53.804C5.30966 54.017 4.70313 54.1236 3.9929 54.1236C3.28835 54.1236 2.67472 54.0156 2.15199 53.7997C1.6321 53.5838 1.22585 53.2642 0.933239 52.8409C0.643466 52.4148 0.491477 51.8878 0.477273 51.2599H2.26278C2.28267 51.5526 2.36648 51.7969 2.5142 51.9929C2.66477 52.1861 2.86506 52.3324 3.11506 52.4318C3.3679 52.5284 3.65341 52.5767 3.97159 52.5767C4.28409 52.5767 4.5554 52.5312 4.78551 52.4403C5.01847 52.3494 5.19886 52.223 5.3267 52.0611C5.45455 51.8991 5.51847 51.7131 5.51847 51.5028C5.51847 51.3068 5.46023 51.142 5.34375 51.0085C5.23011 50.875 5.0625 50.7614 4.84091 50.6676C4.62216 50.5739 4.35369 50.4886 4.03551 50.4119L3.08523 50.1733C2.34943 49.9943 1.76847 49.7145 1.34233 49.3338C0.916193 48.9531 0.704545 48.4403 0.707386 47.7955C0.704545 47.267 0.84517 46.8054 1.12926 46.4105C1.41619 46.0156 1.80966 45.7074 2.30966 45.4858C2.80966 45.2642 3.37784 45.1534 4.0142 45.1534C4.66193 45.1534 5.22727 45.2642 5.71023 45.4858C6.19602 45.7074 6.57386 46.0156 6.84375 46.4105C7.11364 46.8054 7.25284 47.2628 7.26136 47.7827H5.4929ZM8.58771 54V47.4545H10.4031V54H8.58771ZM9.49964 46.6108C9.22976 46.6108 8.99822 46.5213 8.80504 46.3423C8.6147 46.1605 8.51953 45.9432 8.51953 45.6903C8.51953 45.4403 8.6147 45.2259 8.80504 45.0469C8.99822 44.8651 9.22976 44.7741 9.49964 44.7741C9.76953 44.7741 9.99964 44.8651 10.19 45.0469C10.3832 45.2259 10.4798 45.4403 10.4798 45.6903C10.4798 45.9432 10.3832 46.1605 10.19 46.3423C9.99964 46.5213 9.76953 46.6108 9.49964 46.6108ZM13.6726 50.2159V54H11.8572V47.4545H13.5874V48.6094H13.6641C13.8089 48.2287 14.0518 47.9276 14.3928 47.706C14.7337 47.4815 15.147 47.3693 15.6328 47.3693C16.0874 47.3693 16.4837 47.4688 16.8217 47.6676C17.1598 47.8665 17.4226 48.1506 17.6101 48.5199C17.7976 48.8864 17.8913 49.3239 17.8913 49.8324V54H16.076V50.1562C16.0788 49.7557 15.9766 49.4432 15.7692 49.2188C15.5618 48.9915 15.2763 48.8778 14.9126 48.8778C14.6683 48.8778 14.4524 48.9304 14.2649 49.0355C14.0803 49.1406 13.9354 49.294 13.8303 49.4957C13.728 49.6946 13.6754 49.9347 13.6726 50.2159ZM22.271 56.5909C21.6829 56.5909 21.1786 56.5099 20.7582 56.348C20.3406 56.1889 20.0082 55.9716 19.761 55.696C19.5138 55.4205 19.3533 55.1108 19.2795 54.767L20.9585 54.5412C21.0096 54.6719 21.0906 54.794 21.2013 54.9077C21.3121 55.0213 21.4585 55.1122 21.6403 55.1804C21.8249 55.2514 22.0494 55.2869 22.3136 55.2869C22.7085 55.2869 23.0337 55.1903 23.2894 54.9972C23.5479 54.8068 23.6772 54.4872 23.6772 54.0384V52.8409H23.6005C23.521 53.0227 23.4016 53.1946 23.2425 53.3565C23.0835 53.5185 22.8789 53.6506 22.6289 53.7528C22.3789 53.8551 22.0806 53.9062 21.734 53.9062C21.2425 53.9062 20.7951 53.7926 20.3917 53.5653C19.9911 53.3352 19.6715 52.9844 19.4329 52.5128C19.1971 52.0384 19.0792 51.4389 19.0792 50.7145C19.0792 49.973 19.1999 49.3537 19.4414 48.8565C19.6829 48.3594 20.0039 47.9872 20.4045 47.7401C20.8079 47.4929 21.2496 47.3693 21.7298 47.3693C22.0962 47.3693 22.4031 47.4318 22.6502 47.5568C22.8974 47.679 23.0962 47.8324 23.2468 48.017C23.4002 48.1989 23.5181 48.3778 23.6005 48.554H23.6687V47.4545H25.4712V54.0639C25.4712 54.6207 25.3349 55.0866 25.0621 55.4616C24.7894 55.8366 24.4116 56.1179 23.9286 56.3054C23.4485 56.4957 22.896 56.5909 22.271 56.5909ZM22.3093 52.5426C22.6019 52.5426 22.8491 52.4702 23.0508 52.3253C23.2553 52.1776 23.4116 51.9673 23.5195 51.6946C23.6303 51.419 23.6857 51.0895 23.6857 50.706C23.6857 50.3224 23.6317 49.9901 23.5238 49.7088C23.4158 49.4247 23.2596 49.2045 23.055 49.0483C22.8505 48.892 22.6019 48.8139 22.3093 48.8139C22.011 48.8139 21.7596 48.8949 21.555 49.0568C21.3505 49.2159 21.1957 49.4375 21.0906 49.7216C20.9854 50.0057 20.9329 50.3338 20.9329 50.706C20.9329 51.0838 20.9854 51.4105 21.0906 51.6861C21.1985 51.9588 21.3533 52.1705 21.555 52.321C21.7596 52.4687 22.011 52.5426 22.3093 52.5426ZM34.4616 47.7827C34.4276 47.4389 34.2813 47.1719 34.0227 46.9815C33.7642 46.7912 33.4134 46.696 32.9702 46.696C32.669 46.696 32.4148 46.7386 32.2074 46.8239C32 46.9062 31.8409 47.0213 31.7301 47.169C31.6222 47.3168 31.5682 47.4844 31.5682 47.6719C31.5625 47.8281 31.5952 47.9645 31.6662 48.081C31.7401 48.1974 31.8409 48.2983 31.9688 48.3835C32.0966 48.4659 32.2443 48.5384 32.4119 48.6009C32.5795 48.6605 32.7585 48.7116 32.9489 48.7543L33.733 48.9418C34.1136 49.027 34.4631 49.1406 34.7812 49.2827C35.0994 49.4247 35.375 49.5994 35.608 49.8068C35.8409 50.0142 36.0213 50.2585 36.1491 50.5398C36.2798 50.821 36.3466 51.1435 36.3494 51.5071C36.3466 52.0412 36.2102 52.5043 35.9403 52.8963C35.6733 53.2855 35.2869 53.5881 34.7812 53.804C34.2784 54.017 33.6719 54.1236 32.9616 54.1236C32.2571 54.1236 31.6435 54.0156 31.1207 53.7997C30.6009 53.5838 30.1946 53.2642 29.902 52.8409C29.6122 52.4148 29.4602 51.8878 29.446 51.2599H31.2315C31.2514 51.5526 31.3352 51.7969 31.483 51.9929C31.6335 52.1861 31.8338 52.3324 32.0838 52.4318C32.3366 52.5284 32.6222 52.5767 32.9403 52.5767C33.2528 52.5767 33.5241 52.5312 33.7543 52.4403C33.9872 52.3494 34.1676 52.223 34.2955 52.0611C34.4233 51.8991 34.4872 51.7131 34.4872 51.5028C34.4872 51.3068 34.429 51.142 34.3125 51.0085C34.1989 50.875 34.0313 50.7614 33.8097 50.6676C33.5909 50.5739 33.3224 50.4886 33.0043 50.4119L32.054 50.1733C31.3182 49.9943 30.7372 49.7145 30.3111 49.3338C29.8849 48.9531 29.6733 48.4403 29.6761 47.7955C29.6733 47.267 29.8139 46.8054 30.098 46.4105C30.3849 46.0156 30.7784 45.7074 31.2784 45.4858C31.7784 45.2642 32.3466 45.1534 32.983 45.1534C33.6307 45.1534 34.196 45.2642 34.679 45.4858C35.1648 45.7074 35.5426 46.0156 35.8125 46.4105C36.0824 46.8054 36.2216 47.2628 36.2301 47.7827H34.4616ZM40.5138 54.1278C39.8519 54.1278 39.2795 53.9872 38.7965 53.706C38.3164 53.4219 37.9457 53.027 37.6843 52.5213C37.4229 52.0128 37.2923 51.4233 37.2923 50.7528C37.2923 50.0767 37.4229 49.4858 37.6843 48.9801C37.9457 48.4716 38.3164 48.0767 38.7965 47.7955C39.2795 47.5114 39.8519 47.3693 40.5138 47.3693C41.1758 47.3693 41.7468 47.5114 42.2269 47.7955C42.7099 48.0767 43.082 48.4716 43.3434 48.9801C43.6048 49.4858 43.7354 50.0767 43.7354 50.7528C43.7354 51.4233 43.6048 52.0128 43.3434 52.5213C43.082 53.027 42.7099 53.4219 42.2269 53.706C41.7468 53.9872 41.1758 54.1278 40.5138 54.1278ZM40.5224 52.7216C40.8235 52.7216 41.0749 52.6364 41.2766 52.4659C41.4783 52.2926 41.6303 52.0568 41.7326 51.7585C41.8377 51.4602 41.8903 51.1207 41.8903 50.7401C41.8903 50.3594 41.8377 50.0199 41.7326 49.7216C41.6303 49.4233 41.4783 49.1875 41.2766 49.0142C41.0749 48.8409 40.8235 48.7543 40.5224 48.7543C40.2184 48.7543 39.9627 48.8409 39.7553 49.0142C39.5508 49.1875 39.396 49.4233 39.2908 49.7216C39.1886 50.0199 39.1374 50.3594 39.1374 50.7401C39.1374 51.1207 39.1886 51.4602 39.2908 51.7585C39.396 52.0568 39.5508 52.2926 39.7553 52.4659C39.9627 52.6364 40.2184 52.7216 40.5224 52.7216ZM46.7312 50.2159V54H44.9158V47.4545H46.646V48.6094H46.7227C46.8675 48.2287 47.1104 47.9276 47.4513 47.706C47.7923 47.4815 48.2056 47.3693 48.6914 47.3693C49.146 47.3693 49.5423 47.4688 49.8803 47.6676C50.2184 47.8665 50.4812 48.1506 50.6687 48.5199C50.8562 48.8864 50.9499 49.3239 50.9499 49.8324V54H49.1346V50.1562C49.1374 49.7557 49.0352 49.4432 48.8278 49.2188C48.6204 48.9915 48.3349 48.8778 47.9712 48.8778C47.7269 48.8778 47.511 48.9304 47.3235 49.0355C47.1388 49.1406 46.994 49.294 46.8888 49.4957C46.7866 49.6946 46.734 49.9347 46.7312 50.2159ZM55.3295 56.5909C54.7415 56.5909 54.2372 56.5099 53.8168 56.348C53.3991 56.1889 53.0668 55.9716 52.8196 55.696C52.5724 55.4205 52.4119 55.1108 52.3381 54.767L54.017 54.5412C54.0682 54.6719 54.1491 54.794 54.2599 54.9077C54.3707 55.0213 54.517 55.1122 54.6989 55.1804C54.8835 55.2514 55.108 55.2869 55.3722 55.2869C55.767 55.2869 56.0923 55.1903 56.348 54.9972C56.6065 54.8068 56.7358 54.4872 56.7358 54.0384V52.8409H56.6591C56.5795 53.0227 56.4602 53.1946 56.3011 53.3565C56.142 53.5185 55.9375 53.6506 55.6875 53.7528C55.4375 53.8551 55.1392 53.9062 54.7926 53.9062C54.3011 53.9062 53.8537 53.7926 53.4503 53.5653C53.0497 53.3352 52.7301 52.9844 52.4915 52.5128C52.2557 52.0384 52.1378 51.4389 52.1378 50.7145C52.1378 49.973 52.2585 49.3537 52.5 48.8565C52.7415 48.3594 53.0625 47.9872 53.4631 47.7401C53.8665 47.4929 54.3082 47.3693 54.7884 47.3693C55.1548 47.3693 55.4616 47.4318 55.7088 47.5568C55.956 47.679 56.1548 47.8324 56.3054 48.017C56.4588 48.1989 56.5767 48.3778 56.6591 48.554H56.7273V47.4545H58.5298V54.0639C58.5298 54.6207 58.3935 55.0866 58.1207 55.4616C57.848 55.8366 57.4702 56.1179 56.9872 56.3054C56.5071 56.4957 55.9545 56.5909 55.3295 56.5909ZM55.3679 52.5426C55.6605 52.5426 55.9077 52.4702 56.1094 52.3253C56.3139 52.1776 56.4702 51.9673 56.5781 51.6946C56.6889 51.419 56.7443 51.0895 56.7443 50.706C56.7443 50.3224 56.6903 49.9901 56.5824 49.7088C56.4744 49.4247 56.3182 49.2045 56.1136 49.0483C55.9091 48.892 55.6605 48.8139 55.3679 48.8139C55.0696 48.8139 54.8182 48.8949 54.6136 49.0568C54.4091 49.2159 54.2543 49.4375 54.1491 49.7216C54.044 50.0057 53.9915 50.3338 53.9915 50.706C53.9915 51.0838 54.044 51.4105 54.1491 51.6861C54.2571 51.9588 54.4119 52.1705 54.6136 52.321C54.8182 52.4687 55.0696 52.5426 55.3679 52.5426Z" fill="#fff"/>
<path d="M41.5636 18.7314C41.6646 13.3286 42.8619 4.80545 37.2359 1.39619C37.308 1.02044 37.1349 0.6304 36.63 0.50053C29.446 -1.27634 18.7711 2.03181 12.2219 4.87768C8.73086 6.39452 7.99515 9.45708 8.00958 12.953C8.05285 19.6704 7.86532 26.5034 8.24039 33.2063C8.25481 33.4952 8.39907 33.6831 8.5866 33.7841C8.68758 34.0008 8.90397 34.1598 9.20691 34.203C9.25019 34.203 9.29346 34.2175 9.32231 34.2175C14.2415 37.9447 18.4249 37.7423 24.5847 38.2913C28.6816 38.6524 37.7842 40.6315 40.352 35.821C43.2081 30.5194 41.4625 24.4521 41.5636 18.7314ZM10.2021 19.4825C10.3031 13.9786 8.8894 8.25806 15.2511 5.83098C21.8437 3.31751 28.6525 3.07178 35.5192 2.32059C34.7834 7.88232 35.8078 13.7476 35.8799 19.338C35.9374 23.3542 35.3604 27.5723 34.7691 31.5305C34.7258 31.805 34.798 32.0361 34.9134 32.2239C30.7875 32.5706 26.8638 33.1629 22.6659 33.0473C18.3382 32.9318 14.0105 32.3684 9.68281 32.6862C10.0002 28.2946 10.13 23.8885 10.2021 19.4825Z" fill="#fff"/>
<path d="M30.571 10.3674C30.4556 10.3385 30.3691 10.3963 30.297 10.4685C30.1095 10.2662 29.8497 10.165 29.5036 10.2807C26.3732 11.2919 21.3819 10.6272 17.8765 11.9853C17.3572 12.1874 17.1985 12.9388 17.6745 13.2132C17.5736 13.3288 17.5014 13.4588 17.487 13.632C17.3427 16.4636 18.0208 19.5262 17.3283 22.242C15.8857 21.2597 13.8229 20.8985 13.1304 22.9788C12.6544 24.38 12.9141 26.4604 14.3278 27.2549C16.3762 28.4251 18.3525 25.0012 18.843 23.5566C19.5643 21.4186 19.5499 19.0207 19.3046 16.6803C22.738 16.7092 26.1568 16.0591 29.5757 15.7413C29.489 16.2036 29.4026 16.6803 29.3161 17.1426C29.2439 17.4891 28.4792 20.4217 28.0322 22.4008C26.4021 21.8807 24.5123 22.5452 24.2527 24.5388C23.9353 26.9224 26.5752 27.3413 28.2341 26.4168C29.3305 25.8102 29.6767 24.1343 29.9075 23.0509C30.2826 21.2451 30.7009 19.4393 31.0183 17.6047C31.2635 16.2036 32.533 10.9741 30.571 10.3674ZM19.146 15.2646C19.0594 14.6578 18.9728 14.0511 18.8863 13.4733C21.0357 13.69 23.5169 13.0977 25.551 12.8521C26.4598 12.7365 28.9556 12.7943 30.0375 12.043C30.0375 12.043 30.0375 12.043 30.0375 12.0576C30.0229 12.6354 29.9654 13.2132 29.8932 13.7911C26.2867 14.1089 22.7524 14.9468 19.146 15.2646Z" fill="#fff"/>
</svg>
